<svg width="17" height="20" viewBox="0 0 17 20" fill="none" xmlns="http://www.w3.org/2000/svg">
<path d="M16.5852 17.8033L13.9374 11.4111C13.87 11.2483 13.6833 11.1709 13.5205 11.2383C13.3576 11.3058 13.2802 11.4925 13.3477 11.6553L15.7414 17.4341L13.558 16.8014C13.4147 16.7599 13.2617 16.8233 13.1897 16.954L12.0931 18.9452L9.52476 12.7446C12.4891 12.1729 14.7353 9.55932 14.7353 6.4306C14.7353 2.88477 11.8506 0 8.30476 0C4.75893 0 1.87416 2.88477 1.87416 6.4306C1.87416 7.86681 2.34753 9.19447 3.14633 10.266L0.0242923 17.8033C-0.0226439 17.9167 -0.000473651 18.0469 0.0813561 18.1383C0.163143 18.2297 0.290165 18.2661 0.407994 18.232L2.98387 17.4856L4.27748 19.8348C4.33382 19.9371 4.44119 20 4.55697 20C4.56285 20 4.56876 19.9998 4.57468 19.9995C4.69719 19.9927 4.80493 19.9163 4.85191 19.803L7.32578 13.8305C7.39323 13.6677 7.31591 13.481 7.15306 13.4135C6.99021 13.3461 6.80353 13.4234 6.73608 13.5863L4.51629 18.9452L3.41982 16.954C3.34782 16.8233 3.19468 16.7599 3.05144 16.8014L0.868122 17.4341L3.60842 10.8184C4.7828 12.0746 6.45353 12.8611 8.30476 12.8611C8.49587 12.8611 8.68489 12.8523 8.87178 12.8359L11.7577 19.803C11.8046 19.9163 11.9124 19.9927 12.0348 19.9995C12.0408 19.9998 12.0467 20 12.0526 20C12.1684 20 12.2757 19.9371 12.332 19.8348L13.6257 17.4856L16.2016 18.232C16.3195 18.2662 16.4464 18.2297 16.5282 18.1383C16.61 18.0469 16.6322 17.9167 16.5852 17.8033V17.8033ZM2.51246 6.4306C2.51246 3.23672 5.11089 0.638298 8.30476 0.638298C11.4986 0.638298 14.097 3.23672 14.097 6.4306C14.097 9.62447 11.4986 12.2229 8.30476 12.2229C5.11089 12.2229 2.51246 9.62447 2.51246 6.4306V6.4306Z" fill="black"/>
<path d="M11.9924 5.23241C11.9557 5.11931 11.859 5.03599 11.7417 5.01629L9.59415 4.6559L8.58781 2.72488C8.53283 2.61939 8.42377 2.55322 8.30479 2.55322C8.18586 2.55322 8.07675 2.61939 8.02177 2.72488L7.01539 4.6559L4.86791 5.01629C4.75059 5.03595 4.65395 5.11927 4.61718 5.23241C4.58042 5.34556 4.60961 5.46973 4.69297 5.55463L6.2185 7.10846L5.89765 9.26224C5.88012 9.3799 5.92948 9.49752 6.02573 9.56748C6.1219 9.63735 6.24909 9.64795 6.35556 9.59497L8.30479 8.62424L10.254 9.59497C10.299 9.61739 10.3477 9.62846 10.3962 9.62846C10.4625 9.62846 10.5283 9.60786 10.5839 9.56752C10.6801 9.49756 10.7295 9.37995 10.7119 9.26229L10.3911 7.1085L11.9167 5.55463C12 5.46973 12.0292 5.34556 11.9924 5.23241V5.23241ZM9.82428 6.77471C9.75415 6.84616 9.7216 6.94633 9.73636 7.04531L9.99041 8.75058L8.44709 7.98203C8.40224 7.95973 8.35356 7.94854 8.30479 7.94854C8.25607 7.94854 8.2073 7.95969 8.16254 7.98203L6.61922 8.75058L6.87326 7.04531C6.88803 6.94633 6.85548 6.84612 6.78535 6.77471L5.57748 5.54441L7.27777 5.25905C7.3765 5.2425 7.46173 5.18058 7.50799 5.09182L8.30479 3.56292L9.1016 5.09186C9.1479 5.18063 9.23309 5.24254 9.33181 5.2591L11.0321 5.54446L9.82428 6.77471V6.77471Z" fill="black"/>
<path d="M13.1393 6.75253C12.9646 6.72917 12.8041 6.85223 12.781 7.02699C12.485 9.26134 10.5606 10.9463 8.30477 10.9463C5.81481 10.9463 3.78907 8.92061 3.78907 6.43061C3.78907 3.94061 5.81481 1.91491 8.30477 1.91491C10.5606 1.91491 12.485 3.59985 12.781 5.83423C12.8041 6.00899 12.9649 6.13214 13.1393 6.1087C13.314 6.08555 13.4369 5.92512 13.4138 5.7504C13.0759 3.19993 10.8795 1.27661 8.30477 1.27661C5.46286 1.27661 3.15077 3.58865 3.15077 6.43061C3.15077 9.27257 5.46286 11.5846 8.30477 11.5846C10.8795 11.5846 13.0759 9.66125 13.4138 7.11078C13.4369 6.9361 13.314 6.77568 13.1393 6.75253V6.75253Z" fill="black"/>
</svg>
