<svg width="25" height="25" viewBox="0 0 25 25" fill="none" xmlns="http://www.w3.org/2000/svg">
<path d="M23.2754 15.659C22.1549 15.659 21.0316 15.659 19.911 15.659C19.7498 15.659 19.5885 15.659 19.4273 15.659C18.9982 15.659 18.5882 16.0361 18.6073 16.4789C18.6265 16.9244 18.9681 17.2988 19.4273 17.2988C20.5478 17.2988 21.6711 17.2988 22.7917 17.2988C22.9529 17.2988 23.1142 17.2988 23.2754 17.2988C23.7045 17.2988 24.1145 16.9216 24.0953 16.4789C24.0762 16.0334 23.7346 15.659 23.2754 15.659Z" fill="white"/>
<path d="M15.601 15.659C15.109 15.659 14.6143 15.659 14.1224 15.659C12.9499 15.659 11.7747 15.659 10.6022 15.659C9.17554 15.659 7.74615 15.659 6.31949 15.659C5.09234 15.659 3.86793 15.659 2.64079 15.659C2.04224 15.659 1.4437 15.648 0.845161 15.659C0.836962 15.659 0.828763 15.659 0.820564 15.659C0.391473 15.659 -0.0184871 16.0361 0.000644362 16.4789C0.0197758 16.9244 0.361409 17.2988 0.820564 17.2988C1.31252 17.2988 1.8072 17.2988 2.29915 17.2988C3.47164 17.2988 4.64686 17.2988 5.81934 17.2988C7.246 17.2988 8.67539 17.2988 10.1021 17.2988C11.3292 17.2988 12.5536 17.2988 13.7808 17.2988C14.3793 17.2988 14.9778 17.3097 15.5764 17.2988C15.5846 17.2988 15.5928 17.2988 15.601 17.2988C16.0301 17.2988 16.44 16.9216 16.4209 16.4789C16.4018 16.0334 16.0601 15.659 15.601 15.659Z" fill="white"/>
<path d="M17.5142 14.5658C18.5719 14.5658 19.4273 15.4212 19.4273 16.4789C19.4273 17.5366 18.5719 18.3921 17.5142 18.3921C16.4565 18.3921 15.601 17.5366 15.601 16.4789C15.601 15.4212 16.4565 14.5658 17.5142 14.5658Z" fill="white"/>
<path d="M17.5141 15.1124C17.5524 15.1124 17.5906 15.1124 17.6289 15.1151C17.648 15.1151 17.6672 15.1178 17.6863 15.1206C17.7136 15.1233 17.7792 15.1479 17.7054 15.1206C17.6289 15.0933 17.7492 15.1288 17.7792 15.137C17.8339 15.1479 17.8858 15.1616 17.9377 15.178C17.9787 15.1916 18.017 15.2053 18.058 15.219C18.1482 15.2518 17.9651 15.1698 18.0744 15.2272C18.1591 15.2709 18.2411 15.3174 18.3204 15.3693C18.3395 15.383 18.3586 15.3966 18.3778 15.4103C18.427 15.4431 18.334 15.3802 18.3368 15.3802C18.3422 15.3775 18.4352 15.4677 18.4434 15.4731C18.4734 15.5005 18.5035 15.5305 18.5308 15.5606C18.5418 15.5743 18.5554 15.5879 18.5664 15.5989C18.5773 15.6125 18.5882 15.6262 18.6019 15.6399C18.6265 15.6727 18.6183 15.6563 18.5718 15.5989C18.6073 15.6016 18.6893 15.7738 18.7085 15.8066C18.7303 15.8421 18.7467 15.8804 18.7659 15.9159C18.7823 15.946 18.8205 15.9788 18.7741 15.9323C18.7549 15.8886 18.7549 15.8886 18.7741 15.9323C18.7795 15.9432 18.7823 15.9542 18.7877 15.9651C18.8178 16.0444 18.8397 16.1263 18.8588 16.2083C18.8643 16.2329 18.867 16.2575 18.8725 16.2794C18.8916 16.3641 18.8725 16.2466 18.8697 16.2439C18.8861 16.2521 18.8807 16.3696 18.8807 16.3942C18.8834 16.4762 18.8807 16.5582 18.8752 16.6402C18.8643 16.7686 18.8943 16.5636 18.8725 16.662C18.8615 16.7167 18.8506 16.7686 18.8369 16.8233C18.826 16.8643 18.8123 16.9053 18.7987 16.9435C18.7905 16.9654 18.7823 16.99 18.7741 17.0119C18.7604 17.0474 18.7413 17.0474 18.7741 17.0119C18.8205 16.9654 18.7795 16.9982 18.7659 17.0283C18.7577 17.0447 18.7495 17.0611 18.7413 17.0775C18.7167 17.1239 18.6893 17.1704 18.662 17.2168C18.6401 17.2524 18.6155 17.2852 18.591 17.3207C18.5308 17.4054 18.6101 17.2934 18.6128 17.2934C18.6128 17.2961 18.5636 17.3508 18.5664 17.348C18.5035 17.4191 18.4352 17.4819 18.3641 17.5475C18.293 17.6104 18.4598 17.4847 18.3477 17.5612C18.3122 17.5858 18.2794 17.6077 18.2439 17.6295C18.2083 17.6514 18.1728 17.6733 18.1345 17.6924C18.1127 17.7033 18.0908 17.7143 18.0717 17.7252C17.9705 17.7771 18.0853 17.7361 18.0881 17.7225C18.0799 17.7525 17.8804 17.7935 17.8476 17.8017C17.8011 17.8127 17.7519 17.8236 17.7054 17.8318C17.6617 17.84 17.6289 17.8236 17.741 17.8291C17.7164 17.8291 17.6918 17.8345 17.6672 17.8372C17.5852 17.8427 17.5032 17.8454 17.4212 17.84C17.3993 17.84 17.2982 17.8427 17.29 17.8291C17.29 17.8318 17.4103 17.8509 17.3255 17.8318C17.2955 17.8263 17.2654 17.8209 17.2354 17.8127C17.1534 17.7935 17.0714 17.7689 16.9921 17.7389C16.8664 17.6951 17.0768 17.7853 16.9566 17.7225C16.9156 17.7006 16.8719 17.6787 16.8309 17.6541C16.7953 17.6323 16.7598 17.6104 16.7243 17.5885C16.7051 17.5749 16.686 17.5612 16.6669 17.5475C16.5985 17.5011 16.6942 17.5667 16.6942 17.5694C16.6751 17.5803 16.5084 17.3972 16.4892 17.3754C16.4783 17.3617 16.4674 17.348 16.4537 17.3344C16.451 17.3289 16.4455 17.3262 16.4428 17.3207C16.4127 17.2852 16.4127 17.2852 16.44 17.3207C16.4728 17.3344 16.4646 17.3562 16.44 17.3207C16.4264 17.3016 16.4127 17.2824 16.399 17.2633C16.3444 17.184 16.3034 17.0993 16.2569 17.0146C16.2132 16.9299 16.2897 17.113 16.2487 16.9955C16.235 16.9545 16.2214 16.9162 16.2077 16.8752C16.1941 16.8287 16.1804 16.7823 16.1722 16.7331C16.1667 16.7085 16.164 16.6839 16.1585 16.662C16.1449 16.5882 16.164 16.6675 16.1613 16.6976C16.1667 16.6183 16.1476 16.5336 16.1476 16.4516C16.1476 16.4079 16.1503 16.3641 16.1531 16.3204C16.1531 16.3231 16.1558 16.2466 16.1613 16.2466C16.1476 16.2521 16.1394 16.3805 16.1613 16.263C16.1804 16.1619 16.2077 16.0608 16.2432 15.9651C16.246 15.9542 16.2651 15.8995 16.2678 15.8968C16.2624 15.8968 16.2159 16.0061 16.2569 15.9296C16.2815 15.8831 16.3061 15.8339 16.3307 15.7875C16.3553 15.7465 16.3799 15.7055 16.4072 15.6672C16.4209 15.6481 16.4346 15.6289 16.4482 15.6098C16.4838 15.5551 16.3717 15.6945 16.44 15.6235C16.5084 15.5497 16.5767 15.4786 16.6505 15.4103C16.6532 15.4076 16.6887 15.3748 16.6915 15.3748C16.6313 15.4185 16.6177 15.4294 16.6505 15.4048C16.6641 15.3939 16.6778 15.383 16.6942 15.3748C16.7325 15.3474 16.7735 15.3228 16.8145 15.2982C16.8555 15.2736 16.8965 15.2518 16.9402 15.2299C16.9347 15.2326 17.003 15.1971 17.0058 15.1998C17.003 15.1971 16.8801 15.2463 16.9921 15.208C17.0905 15.1752 17.1889 15.1424 17.29 15.1233C17.3119 15.1178 17.3447 15.1178 17.3638 15.1096C17.3392 15.1206 17.2517 15.1206 17.3283 15.1151C17.3884 15.1178 17.4513 15.1124 17.5141 15.1124C17.8011 15.1096 18.0744 14.8637 18.0607 14.5658C18.0471 14.2733 17.8202 14.0164 17.5141 14.0192C16.4564 14.0301 15.5327 14.7024 15.1828 15.6973C14.8549 16.6265 15.1692 17.7389 15.9344 18.3593C16.7434 19.0179 17.8995 19.1355 18.7987 18.5779C19.6896 18.0258 20.1215 16.9818 19.922 15.9624C19.7033 14.8418 18.6456 14.0192 17.5169 14.0192C17.2299 14.0192 16.9566 14.2706 16.9702 14.5658C16.9812 14.8609 17.208 15.1124 17.5141 15.1124Z" fill="white"/>
<path d="M23.2754 6.63986C22.2232 6.63986 21.1737 6.63986 20.1215 6.63986C18.4488 6.63986 16.7762 6.63986 15.1035 6.63986C14.7237 6.63986 14.341 6.63986 13.9611 6.63986C13.532 6.63986 13.1221 7.01703 13.1412 7.45978C13.1603 7.90527 13.502 8.2797 13.9611 8.2797C15.0134 8.2797 16.0629 8.2797 17.1151 8.2797C18.7877 8.2797 20.4604 8.2797 22.133 8.2797C22.5129 8.2797 22.8955 8.2797 23.2754 8.2797C23.7045 8.2797 24.1145 7.90254 24.0953 7.45978C24.0762 7.01429 23.7346 6.63986 23.2754 6.63986Z" fill="white"/>
<path d="M10.1349 6.63986C9.08262 6.63986 8.03312 6.63986 6.98089 6.63986C5.30826 6.63986 3.63562 6.63986 1.96299 6.63986C1.58309 6.63986 1.20046 6.63986 0.820564 6.63986C0.391473 6.63986 -0.0184871 7.01703 0.000644363 7.45978C0.0197758 7.90527 0.361409 8.2797 0.820564 8.2797C1.87279 8.2797 2.92229 8.2797 3.97452 8.2797C5.64716 8.2797 7.31979 8.2797 8.99243 8.2797C9.37233 8.2797 9.75496 8.2797 10.1349 8.2797C10.5639 8.2797 10.9739 7.90254 10.9548 7.45978C10.9356 7.01429 10.594 6.63986 10.1349 6.63986Z" fill="white"/>
<path d="M12.048 5.5466C13.1057 5.5466 13.9612 6.40205 13.9612 7.45975C13.9612 8.51744 13.1057 9.37289 12.048 9.37289C10.9903 9.37289 10.1349 8.51744 10.1349 7.45975C10.1349 6.40205 10.9903 5.5466 12.048 5.5466Z" fill="white"/>
<path d="M12.048 6.09325C12.0863 6.09325 12.1245 6.09325 12.1628 6.09598C12.1819 6.09598 12.201 6.09871 12.2202 6.10145C12.2475 6.10418 12.3131 6.12878 12.2393 6.10145C12.1628 6.07412 12.283 6.10965 12.3131 6.11785C12.3678 6.12878 12.4197 6.14244 12.4716 6.15884C12.5126 6.17251 12.5509 6.18617 12.5919 6.19984C12.6821 6.23263 12.499 6.15064 12.6083 6.20804C12.693 6.25177 12.775 6.29823 12.8543 6.35016C12.8734 6.36382 12.8925 6.37749 12.9116 6.39115C12.9608 6.42395 12.8679 6.36109 12.8706 6.36109C12.8761 6.35836 12.969 6.44855 12.9772 6.45401C13.0073 6.48134 13.0374 6.51141 13.0647 6.54147C13.0756 6.55514 13.0893 6.5688 13.1002 6.57973C13.1112 6.5934 13.1221 6.60706 13.1358 6.62073C13.1604 6.65353 13.1522 6.63713 13.1057 6.57973C13.1412 6.58247 13.2232 6.75465 13.2423 6.78745C13.2642 6.82298 13.2806 6.86124 13.2997 6.89677C13.3161 6.92683 13.3544 6.95963 13.3079 6.91317C13.2888 6.86944 13.2888 6.86944 13.3079 6.91317C13.3134 6.9241 13.3161 6.93503 13.3216 6.94596C13.3517 7.02522 13.3735 7.10722 13.3927 7.18921C13.3981 7.21381 13.4009 7.2384 13.4063 7.26027C13.4255 7.34499 13.4063 7.22747 13.4036 7.22474C13.42 7.23294 13.4145 7.35046 13.4145 7.37506C13.4173 7.45705 13.4145 7.53904 13.4091 7.62103C13.3981 7.74949 13.4282 7.54451 13.4063 7.6429C13.3954 7.69756 13.3845 7.74949 13.3708 7.80415C13.3599 7.84514 13.3462 7.88614 13.3325 7.9244C13.3243 7.94627 13.3161 7.97086 13.3079 7.99273C13.2943 8.02826 13.2751 8.02826 13.3079 7.99273C13.3544 7.94627 13.3134 7.97906 13.2997 8.00913C13.2915 8.02553 13.2833 8.04192 13.2751 8.05832C13.2505 8.10478 13.2232 8.15125 13.1959 8.19771C13.174 8.23324 13.1494 8.26604 13.1248 8.30157C13.0647 8.38629 13.144 8.27423 13.1467 8.27423C13.1467 8.27697 13.0975 8.33163 13.1002 8.3289C13.0374 8.39996 12.969 8.46282 12.898 8.52841C12.8269 8.59127 12.9936 8.46555 12.8816 8.54208C12.8461 8.56667 12.8133 8.58854 12.7777 8.6104C12.7422 8.63227 12.7067 8.65413 12.6684 8.67326C12.6465 8.68419 12.6247 8.69513 12.6055 8.70606C12.5044 8.75799 12.6192 8.71699 12.6219 8.70333C12.6137 8.73339 12.4142 8.77439 12.3814 8.78258C12.335 8.79352 12.2858 8.80445 12.2393 8.81265C12.1956 8.82085 12.1628 8.80445 12.2748 8.80992C12.2502 8.80992 12.2256 8.81538 12.201 8.81811C12.1191 8.82358 12.0371 8.82631 11.9551 8.82085C11.9332 8.82085 11.8321 8.82358 11.8239 8.80992C11.8239 8.81265 11.9441 8.83178 11.8594 8.81265C11.8294 8.80718 11.7993 8.80172 11.7692 8.79352C11.6872 8.77439 11.6052 8.74979 11.526 8.71972C11.4003 8.676 11.6107 8.76619 11.4905 8.70333C11.4495 8.68146 11.4057 8.6596 11.3647 8.635C11.3292 8.61313 11.2937 8.59127 11.2581 8.56941C11.239 8.55574 11.2199 8.54208 11.2007 8.52841C11.1324 8.48195 11.2281 8.54754 11.2281 8.55027C11.2089 8.56121 11.0422 8.37809 11.0231 8.35623C11.0122 8.34256 11.0012 8.3289 10.9876 8.31523C10.9848 8.30976 10.9794 8.30703 10.9766 8.30157C10.9466 8.26604 10.9466 8.26604 10.9739 8.30157C11.0067 8.31523 10.9985 8.3371 10.9739 8.30157C10.9602 8.28243 10.9466 8.2633 10.9329 8.24417C10.8782 8.16491 10.8372 8.08019 10.7908 7.99546C10.7471 7.91074 10.8236 8.09385 10.7826 7.97633C10.7689 7.93533 10.7553 7.89707 10.7416 7.85608C10.7279 7.80961 10.7143 7.76315 10.7061 7.71396C10.7006 7.68936 10.6979 7.66476 10.6924 7.6429C10.6787 7.5691 10.6979 7.64836 10.6951 7.67843C10.7006 7.59917 10.6815 7.51444 10.6815 7.43245C10.6815 7.38872 10.6842 7.34499 10.6869 7.30126C10.6869 7.304 10.6897 7.22747 10.6951 7.22747C10.6815 7.23294 10.6733 7.36139 10.6951 7.24387C10.7143 7.14275 10.7416 7.04162 10.7771 6.94596C10.7799 6.93503 10.799 6.88037 10.8017 6.87764C10.7963 6.87764 10.7498 6.98696 10.7908 6.91043C10.8154 6.86397 10.84 6.81478 10.8646 6.76832C10.8892 6.72732 10.9138 6.68632 10.9411 6.64806C10.9548 6.62893 10.9684 6.6098 10.9821 6.59067C11.0176 6.536 10.9056 6.67539 10.9739 6.60433C11.0422 6.53054 11.1106 6.45948 11.1843 6.39115C11.1871 6.38842 11.2226 6.35562 11.2253 6.35562C11.1652 6.39935 11.1516 6.41028 11.1843 6.38569C11.198 6.37475 11.2117 6.36382 11.2281 6.35562C11.2663 6.32829 11.3073 6.30369 11.3483 6.2791C11.3893 6.2545 11.4303 6.23263 11.4741 6.21077C11.4686 6.2135 11.5369 6.17797 11.5396 6.18071C11.5369 6.17797 11.4139 6.22717 11.526 6.18891C11.6244 6.15611 11.7228 6.12331 11.8239 6.10418C11.8458 6.09871 11.8785 6.09871 11.8977 6.09051C11.8731 6.10145 11.7856 6.10145 11.8621 6.09598C11.9223 6.09871 11.9851 6.09325 12.048 6.09325C12.335 6.09051 12.6083 5.84454 12.5946 5.54663C12.5809 5.2542 12.3541 4.99729 12.048 5.00002C10.9903 5.01095 10.0665 5.68329 9.71669 6.67812C9.38873 7.60737 9.70303 8.71972 10.4683 9.34013C11.2773 9.9988 12.4334 10.1163 13.3325 9.55878C14.2235 9.0067 14.6553 7.96267 14.4558 6.94323C14.2372 5.82267 13.1795 5.00002 12.0507 5.00002C11.7638 5.00002 11.4905 5.25146 11.5041 5.54663C11.5151 5.84181 11.7419 6.09325 12.048 6.09325Z" fill="white"/>
</svg>
