<svg width="20" height="20" viewBox="0 0 20 20" fill="none" xmlns="http://www.w3.org/2000/svg">
<path d="M9.99998 2.5C9.61664 2.5 9.22498 2.53333 8.83331 2.61667C6.53331 3.05833 4.69998 4.91667 4.26664 7.21667C3.86664 9.39167 4.66664 11.3917 6.11664 12.6833C6.47498 13 6.66664 13.4417 6.66664 13.9083V15.8333C6.66664 16.75 7.41664 17.5 8.33331 17.5H8.56664C8.85831 18 9.38331 18.3333 9.99998 18.3333C10.6166 18.3333 11.15 18 11.4333 17.5H11.6666C12.5833 17.5 13.3333 16.75 13.3333 15.8333V13.9083C13.3333 13.45 13.5166 13 13.8666 12.6917C15.075 11.625 15.8333 10.0667 15.8333 8.33333C15.8333 5.10833 13.225 2.5 9.99998 2.5ZM11.6666 14.1667H8.33331V13.3333H11.6666V14.1667ZM8.33331 15.8333V15H11.6666V15.8333H8.33331ZM12.7583 11.45C12.6833 11.5167 12.625 11.6 12.5583 11.6667H7.43331C7.36664 11.5917 7.30831 11.5083 7.23331 11.4417C6.13331 10.4583 5.64164 8.99167 5.90831 7.525C6.20831 5.90833 7.54164 4.56667 9.14998 4.25C9.43331 4.19167 9.71664 4.16667 9.99998 4.16667C12.3 4.16667 14.1666 6.03333 14.1666 8.33333C14.1666 9.525 13.6583 10.6583 12.7583 11.45Z" fill="#0B191E" fill-opacity="0.5"/>
<path d="M10.4166 9.16669H9.58331V11.6667H10.4166V9.16669Z" fill="#0B191E" fill-opacity="0.5"/>
<path d="M8.64955 7.39476L8.0603 7.98401L9.82805 9.75176L10.4173 9.16251L8.64955 7.39476Z" fill="#0B191E" fill-opacity="0.5"/>
<path d="M9.58415 9.171L10.1734 9.76025L11.9412 7.9925L11.3519 7.40325L9.58415 9.171Z" fill="#0B191E" fill-opacity="0.5"/>
</svg>
