<svg width="20" height="20" viewBox="0 0 20 20" fill="none" xmlns="http://www.w3.org/2000/svg">
<path d="M10 4.91671C10.9667 4.91671 11.75 5.70004 11.75 6.66671C11.75 7.63337 10.9667 8.41671 10 8.41671C9.03337 8.41671 8.25004 7.63337 8.25004 6.66671C8.25004 5.70004 9.03337 4.91671 10 4.91671ZM10 12.4167C12.475 12.4167 15.0834 13.6334 15.0834 14.1667V15.0834H4.91671V14.1667C4.91671 13.6334 7.52504 12.4167 10 12.4167ZM10 3.33337C8.15837 3.33337 6.66671 4.82504 6.66671 6.66671C6.66671 8.50837 8.15837 10 10 10C11.8417 10 13.3334 8.50837 13.3334 6.66671C13.3334 4.82504 11.8417 3.33337 10 3.33337ZM10 10.8334C7.77504 10.8334 3.33337 11.95 3.33337 14.1667V16.6667H16.6667V14.1667C16.6667 11.95 12.225 10.8334 10 10.8334Z" fill="#0B191E" fill-opacity="0.5"/>
</svg>
