<svg width="20" height="20" viewBox="0 0 20 20" fill="none" xmlns="http://www.w3.org/2000/svg">
<path d="M13.6473 8.74913C13.4739 8.91001 13.2418 9 13.0001 9C12.7584 9 12.5263 8.91001 12.3529 8.74913L9.7765 6.37299L9.76251 6.35962C9.27333 5.87474 9 5.22754 9 4.55411C9 3.88068 9.27333 3.23349 9.76251 2.74861C9.98311 2.53325 10.2465 2.36216 10.5373 2.24537C10.828 2.12859 11.1402 2.06846 11.4556 2.06852C11.9979 2.06777 12.5286 2.21817 12.9826 2.5013C13.3753 2.1951 13.8615 2.01916 14.3679 2.00001C14.7163 1.99924 15.0613 2.06558 15.3823 2.19507C15.7032 2.32455 15.9936 2.51452 16.236 2.75362C16.7261 3.23838 17 3.88601 17 4.55996C17 5.23392 16.7261 5.88154 16.236 6.3663L13.6473 8.74913ZM15.2355 3.68269C15.1222 3.57065 14.9863 3.48177 14.8359 3.42145C14.6856 3.36112 14.524 3.33062 14.3609 3.33179C14.284 3.33179 13.9954 3.36855 13.4864 3.83308C13.3514 3.95893 13.1703 4.02938 12.9817 4.02938C12.7932 4.02938 12.6121 3.95893 12.4771 3.83308C12.2074 3.57103 11.8419 3.41892 11.4574 3.40865C11.3273 3.40782 11.1983 3.43194 11.0781 3.47959C10.958 3.52724 10.849 3.59744 10.7578 3.68603C10.5254 3.92088 10.3959 4.23179 10.3959 4.55495C10.3959 4.87811 10.5254 5.18901 10.7578 5.42386L13.0001 7.48921L15.2425 5.41885C15.4718 5.18249 15.5987 4.87175 15.5974 4.54945C15.5961 4.22716 15.4667 3.91736 15.2355 3.68269Z" fill="#0B191E" fill-opacity="0.5"/>
<path d="M4.94629 17.7935C5.01049 17.859 5.0867 17.911 5.17056 17.9464C5.25442 17.9818 5.34429 18 5.43503 17.9999C5.52722 18.0012 5.61873 17.9836 5.70415 17.9481C5.78957 17.9126 5.86718 17.8601 5.9324 17.7935L6.80971 16.8601L11.9907 16.8407C12.4425 16.8411 12.8765 16.6605 13.1995 16.3378L16.5274 13.0029C16.8217 12.7139 16.9916 12.3173 16.9997 11.9004C17.0078 11.4835 16.8534 11.0803 16.5706 10.7796C16.2878 10.479 15.8996 10.3054 15.4916 10.2971C15.0835 10.2889 14.6889 10.4466 14.3946 10.7355L11.8853 13.1617L9.99945 13.3823L11.0857 13.0805C11.2818 13.0408 11.4683 12.962 11.6345 12.8486C11.8008 12.7352 11.9435 12.5895 12.0547 12.4198C12.1658 12.25 12.2431 12.0596 12.2822 11.8593C12.3213 11.659 12.3214 11.4528 12.2825 11.2525C12.2436 11.0522 12.1665 10.8617 12.0555 10.6918C11.9446 10.5219 11.8019 10.3761 11.6358 10.2625C11.4697 10.149 11.2833 10.07 11.0872 10.03C10.8912 9.99009 10.6894 9.98999 10.4934 10.0297L6.56966 10.5414C6.21447 10.5766 5.87884 10.724 5.60945 10.9631L2.23838 13.9557C2.16671 14.0192 2.1086 14.097 2.06766 14.1844C2.02673 14.2719 2.00385 14.3669 2.00044 14.4638C1.99704 14.5606 2.01319 14.6571 2.04789 14.7473C2.08258 14.8375 2.13508 14.9194 2.20212 14.9879L4.94629 17.7935ZM6.51439 12.0324C6.56914 11.984 6.63741 11.9544 6.70954 11.9477H6.73372L10.6678 11.4413C10.7042 11.4338 10.742 11.4414 10.773 11.4624C10.8039 11.4835 10.8254 11.5162 10.8327 11.5534C10.84 11.5906 10.8326 11.6292 10.812 11.6608C10.7915 11.6924 10.7595 11.7144 10.7231 11.7219L8.42616 12.3589C8.31903 12.3888 8.22052 12.4446 8.13902 12.5217C8.05751 12.5988 7.99539 12.6949 7.95794 12.8017C7.92049 12.9085 7.9088 13.023 7.92387 13.1354C7.93894 13.2479 7.98032 13.3549 8.0445 13.4475L8.82337 14.5733C8.89496 14.6764 8.99235 14.758 9.10536 14.8096C9.21838 14.8611 9.34286 14.8807 9.46581 14.8662L12.2722 14.5362C12.4205 14.5186 12.5592 14.4524 12.6676 14.3474L15.3427 11.7625C15.3732 11.7355 15.4126 11.7215 15.4528 11.7233C15.4931 11.7252 15.5311 11.7428 15.559 11.7724C15.5869 11.8021 15.6026 11.8416 15.6029 11.8827C15.6031 11.9239 15.5879 11.9636 15.5603 11.9936L12.2324 15.3232C12.1683 15.3873 12.0822 15.4234 11.9924 15.4238L6.51094 15.445C6.4183 15.4453 6.32668 15.4647 6.24153 15.502C6.15639 15.5393 6.07945 15.5937 6.0153 15.662L5.42294 16.2919L3.69596 14.5274L6.51439 12.0324Z" fill="#0B191E" fill-opacity="0.5"/>
</svg>
