<svg width="20" height="20" viewBox="0 0 20 20" fill="none" xmlns="http://www.w3.org/2000/svg">
<path d="M17.3667 3.51665C17.325 3.41665 17.275 3.32498 17.2167 3.23331C17.1 3.05831 16.9417 2.89998 16.7667 2.78331C16.675 2.72498 16.5833 2.67498 16.4833 2.63331C16.2833 2.54998 16.0667 2.49998 15.8333 2.49998H15V0.833313H13.3333V2.49998H6.66667V0.833313H5V2.49998H4.16667C3.81667 2.49998 3.5 2.60831 3.23333 2.78331C3.05833 2.89998 2.9 3.05831 2.78333 3.23331C2.725 3.32498 2.675 3.41665 2.63333 3.51665C2.55 3.71665 2.5 3.93331 2.5 4.16665V15.8333C2.5 16.75 3.24167 17.5 4.16667 17.5H15.8333C16.0667 17.5 16.2833 17.45 16.4833 17.3666C16.5833 17.325 16.675 17.275 16.7667 17.2166C16.9417 17.1 17.1 16.9416 17.2167 16.7666C17.3917 16.5 17.5 16.175 17.5 15.8333V4.16665C17.5 3.93331 17.45 3.71665 17.3667 3.51665ZM4.16667 15.8333V4.16665H15.8333V15.8333H4.16667ZM10 10.7333C8.30833 10.7333 5 11.6333 5 13.7166V15H15V13.725C15 11.6333 11.6917 10.7333 10 10.7333ZM6.925 13.3333C7.5 12.8666 8.90833 12.4 10 12.4C11.0917 12.4 12.5083 12.8666 13.075 13.3333H6.925ZM10 9.99998C11.375 9.99998 12.5 8.87498 12.5 7.49998C12.5 6.12498 11.375 4.99998 10 4.99998C8.625 4.99998 7.5 6.12498 7.5 7.49998C7.5 8.87498 8.625 9.99998 10 9.99998ZM10 6.66665C10.4583 6.66665 10.8333 7.04165 10.8333 7.49998C10.8333 7.95831 10.4583 8.33331 10 8.33331C9.54167 8.33331 9.16667 7.95831 9.16667 7.49998C9.16667 7.04165 9.54167 6.66665 10 6.66665Z" fill="#0B191E" fill-opacity="0.5"/>
</svg>
