<svg width="20" height="20" viewBox="0 0 20 20" fill="none" xmlns="http://www.w3.org/2000/svg">
<path d="M10.8333 6.25H15V7.91667H10.8333V6.25ZM10.8333 12.0833H15V13.75H10.8333V12.0833ZM15.8333 2.5H4.16667C3.25 2.5 2.5 3.25 2.5 4.16667V15.8333C2.5 16.75 3.25 17.5 4.16667 17.5H15.8333C16.75 17.5 17.5 16.75 17.5 15.8333V4.16667C17.5 3.25 16.75 2.5 15.8333 2.5ZM15.8333 15.8333H4.16667V4.16667H15.8333V15.8333ZM9.16667 5H5V9.16667H9.16667V5ZM8.33333 8.33333H5.83333V5.83333H8.33333V8.33333ZM9.16667 10.8333H5V15H9.16667V10.8333ZM8.33333 14.1667H5.83333V11.6667H8.33333V14.1667Z" fill="#0B191E" fill-opacity="0.5"/>
</svg>
